/* XPM */
static char *install_gui___[] = {
/* columns rows colors chars-per-pixel */
"16 16 138 2",
"   c gray13",
".  c #272727",
"X  c #2C2C2C",
"o  c #2D2D2D",
"O  c #2F2F2F",
"+  c gray19",
"@  c #313131",
"#  c #353535",
"$  c gray21",
"%  c #373737",
"&  c gray22",
"*  c #3F3F3F",
"=  c #007E00",
"-  c #127F12",
";  c gray25",
":  c #444444",
">  c gray27",
",  c gray29",
"<  c #4B4B4B",
"1  c #4C4C4C",
"2  c #4E4E4E",
"3  c gray31",
"4  c #515151",
"5  c gray32",
"6  c #535353",
"7  c #5D5D5D",
"8  c #686868",
"9  c #6A6A6A",
"0  c gray42",
"q  c gray43",
"w  c #7E7E7E",
"e  c #008B00",
"r  c #008E00",
"t  c #009000",
"y  c #009200",
"u  c #059705",
"i  c #0F990F",
"p  c #03A400",
"a  c #00A700",
"s  c #03A900",
"d  c #00AB00",
"f  c #00AC00",
"g  c #00AD00",
"h  c #00AE00",
"j  c #02AE02",
"k  c #0AA80A",
"l  c #00B300",
"z  c #08B500",
"x  c #0EB80A",
"c  c #11B400",
"v  c #17B400",
"b  c #2CB700",
"n  c #24A11C",
"m  c #26A926",
"M  c #2FAD2D",
"N  c #33B533",
"B  c #4BBE00",
"V  c #54B337",
"C  c #5BBC33",
"Z  c #5ECA00",
"A  c #62C31C",
"S  c #52A352",
"D  c #75B64C",
"F  c #6FB16F",
"G  c #53D053",
"H  c #7DCE6B",
"J  c #65D261",
"K  c #67D961",
"L  c #74D674",
"P  c #86C420",
"I  c #898989",
"U  c gray61",
"Y  c gray62",
"T  c #8BBA8B",
"R  c #97B897",
"E  c gray63",
"W  c #A2A2A2",
"Q  c gray64",
"!  c gray66",
"~  c #A9A9A9",
"^  c gray67",
"/  c gray68",
"(  c #AFAFAF",
")  c #ACB4AC",
"_  c gray69",
"`  c #B1B1B1",
"'  c #B2B2B2",
"]  c gray70",
"[  c #B4B4B4",
"{  c gray71",
"}  c #B6B6B6",
"|  c #B7B7B7",
" . c gray72",
".. c #B9B9B9",
"X. c gray73",
"o. c #BBBBBB",
"O. c gray74",
"+. c gray",
"@. c #82DD82",
"#. c #9EC49E",
"$. c #A7E3A7",
"%. c #C0C0C0",
"&. c #C3C3C3",
"*. c #C5C5C5",
"=. c gray78",
"-. c #C8C8C8",
";. c gray79",
":. c #CACACA",
">. c #CBCBCB",
",. c gray80",
"<. c #CDCDCD",
"1. c gray81",
"2. c #C6DFC4",
"3. c #D0D0D0",
"4. c gray82",
"5. c LightGray",
"6. c #D5D5D5",
"7. c gray84",
"8. c #D8D8D8",
"9. c gray85",
"0. c #DADADA",
"q. c #DDDDDD",
"w. c #D4ECC4",
"e. c #E1E1E1",
"r. c #E6E6E6",
"t. c gray91",
"y. c #E9E9E9",
"u. c gray93",
"i. c #EFEFEF",
"p. c #E6F1E0",
"a. c #E6F2E0",
"s. c #EDF6E0",
"d. c #EEF5E4",
"f. c #EDF6E7",
"g. c #ECF7EA",
"h. c #F1F1F1",
"j. c #FEFFFC",
"k. c None",
/* pixels */
"k.k.k.* ; < 2 1 < , ; k.k.k.k.k.",
"k.: / >.3.5.4...` ` E k.k.k.k.k.",
"k.( ,.1.3.<. .` ` ' ~ k.k.k.k.k.",
"@ &.;.-.*.{ _ _ ] =.! k.k.k.k.k.",
"& %.%.%.> $ % # @ X . k.k.k.k.k.",
"o } o.| ! W Q ^ U q k.k.k.k.k.k.",
"k.Y ` ` ` ` [ X.O.+.I k.k.k.k.k.",
"k.4 [  .X.o.o.X.| ) S - y k.k.k.",
"k.k.@ 4 8 9 0 w R m L $.@.N k.k.",
"k.: > : > > > 3 i G J g.H K k k.",
"5 :.1.6.8.9.9.T j M V f.D C x e ",
"7 5.0.e.r.y.t.F f 2.a.j.d.p.n t ",
"6 7.q.r.u.h.i.#.l c B s.P Z z r ",
"  X o O + + @ O u d b w.A v f k.",
"k.k.k.k.k.k.k.k.k.a g p s h k.k.",
"k.k.k.k.k.k.k.k.k.k.k.= k.k.k.k."
};
